<svg xmlns="http://www.w3.org/2000/svg" width="81" height="60" viewBox="0 0 81 60" fill="none">
  <path d="M52.6373 25.5266L72.5563 25.5266C73.0916 25.5734 75.4262 25.8188 77.633 26.6542C80.3263 27.6738 80.9332 28.7528 80.9332 29.6356C80.9333 30.518 80.3271 31.5968 77.6335 32.6165C75.4265 33.4519 73.0916 33.6973 72.5564 33.7441L52.6373 33.7441C50.9054 33.7441 49.3005 34.6528 48.4095 36.1379L34.6564 59.0596L37.6045 39.406C38.0516 36.425 35.7428 33.7441 32.7285 33.7441H11.3586C10.2918 33.7441 9.25371 34.0901 8.40022 34.7302L0.787696 40.4396L2.94121 29.672L0.796325 17.8751L8.14672 24.3068C9.04549 25.0931 10.1991 25.5266 11.3934 25.5266L32.7285 25.5266C35.7429 25.5266 38.0516 22.8457 37.6045 19.8647L34.6564 0.211094L48.4095 23.1328C49.3005 24.6179 50.9054 25.5266 52.6373 25.5266Z" fill="white"/>
</svg>