<svg xmlns="http://www.w3.org/2000/svg" width="133" height="99" viewBox="0 0 133 99" fill="none">
  <path fill-rule="evenodd" clip-rule="evenodd" d="M39.9327 80.007C58.9307 80.007 74.3316 64.606 74.3316 45.6081C74.3316 26.6101 58.9307 11.2092 39.9327 11.2092C20.9348 11.2092 5.53385 26.6101 5.53385 45.6081C5.53385 64.606 20.9348 80.007 39.9327 80.007ZM39.9327 81.9063C59.9797 81.9063 76.231 65.655 76.231 45.6081C76.231 25.5611 59.9797 9.30984 39.9327 9.30984C19.8858 9.30984 3.63452 25.5611 3.63452 45.6081C3.63452 65.655 19.8858 81.9063 39.9327 81.9063Z" fill="white"/>
  <path d="M7.95152 93.323C-6.44848 88.605 2.88021 46.9263 55.3662 6.60179C55.3662 6.60179 6.41963 53.8902 15.5211 81.1398C18.6865 90.6172 38.8223 82.322 38.8223 82.322C38.8223 82.322 22.3515 98.0411 7.95152 93.323Z" fill="white"/>
  <path d="M126.636 52.6492C126.636 52.9049 126.686 53.1273 126.786 53.3164C126.898 53.4943 127.037 53.6444 127.203 53.7667C127.37 53.8779 127.559 53.9613 127.77 54.0169C127.993 54.0725 128.221 54.1003 128.454 54.1003C128.621 54.1003 128.793 54.0836 128.971 54.0502C129.16 54.0058 129.327 53.9446 129.472 53.8668C129.627 53.7778 129.755 53.6666 129.855 53.5332C129.955 53.3886 130.005 53.2107 130.005 52.9994C130.005 52.6436 129.766 52.3767 129.288 52.1988C128.821 52.0209 128.165 51.843 127.32 51.6651C126.975 51.5873 126.636 51.4983 126.303 51.3982C125.98 51.287 125.691 51.148 125.435 50.9812C125.18 50.8033 124.974 50.5865 124.818 50.3307C124.662 50.0639 124.585 49.7414 124.585 49.3633C124.585 48.8073 124.69 48.3514 124.902 47.9956C125.124 47.6398 125.413 47.3618 125.769 47.1616C126.125 46.9504 126.525 46.8058 126.97 46.728C127.415 46.639 127.87 46.5945 128.338 46.5945C128.805 46.5945 129.255 46.639 129.689 46.728C130.133 46.8169 130.528 46.9671 130.873 47.1783C131.217 47.3896 131.501 47.6731 131.723 48.029C131.957 48.3737 132.096 48.8129 132.14 49.3466H129.889C129.855 48.8907 129.683 48.585 129.372 48.4293C129.06 48.2625 128.693 48.1791 128.271 48.1791C128.137 48.1791 127.993 48.1902 127.837 48.2124C127.681 48.2236 127.537 48.2569 127.403 48.3125C127.281 48.3681 127.176 48.4515 127.087 48.5627C126.998 48.6628 126.953 48.8018 126.953 48.9797C126.953 49.191 127.031 49.3633 127.187 49.4968C127.342 49.6302 127.542 49.7414 127.787 49.8304C128.043 49.9082 128.332 49.9805 128.654 50.0472C128.977 50.1139 129.305 50.1862 129.639 50.264C129.983 50.3419 130.317 50.4364 130.639 50.5476C130.973 50.6588 131.268 50.8089 131.523 50.9979C131.779 51.1758 131.985 51.4038 132.14 51.6818C132.296 51.9486 132.374 52.2822 132.374 52.6825C132.374 53.2496 132.257 53.7278 132.024 54.117C131.801 54.495 131.507 54.8008 131.14 55.0343C130.773 55.2678 130.35 55.4291 129.872 55.518C129.405 55.6181 128.927 55.6682 128.438 55.6682C127.937 55.6682 127.448 55.6181 126.97 55.518C126.492 55.418 126.064 55.2512 125.685 55.0177C125.319 54.7841 125.013 54.4784 124.768 54.1003C124.535 53.7111 124.407 53.2274 124.384 52.6492H126.636Z" fill="white"/>
  <path d="M121.527 50.214C121.416 49.6135 121.215 49.1576 120.926 48.8463C120.648 48.5349 120.22 48.3792 119.642 48.3792C119.264 48.3792 118.947 48.446 118.691 48.5794C118.447 48.7017 118.247 48.8574 118.091 49.0464C117.946 49.2355 117.841 49.4356 117.774 49.6469C117.718 49.8582 117.685 50.0472 117.674 50.214H121.527ZM117.674 51.7151C117.707 52.4824 117.902 53.0384 118.258 53.3831C118.613 53.7278 119.125 53.9001 119.792 53.9001C120.27 53.9001 120.682 53.7834 121.026 53.5499C121.371 53.3052 121.582 53.0495 121.66 52.7826H123.745C123.412 53.8167 122.9 54.5562 122.211 55.001C121.521 55.4458 120.687 55.6682 119.709 55.6682C119.03 55.6682 118.419 55.5625 117.874 55.3512C117.329 55.1289 116.868 54.8175 116.49 54.4172C116.112 54.0169 115.817 53.5387 115.606 52.9828C115.405 52.4268 115.305 51.8152 115.305 51.148C115.305 50.5031 115.411 49.9026 115.622 49.3466C115.834 48.7907 116.134 48.3125 116.523 47.9122C116.912 47.5008 117.374 47.1783 117.907 46.9448C118.452 46.7113 119.053 46.5945 119.709 46.5945C120.443 46.5945 121.082 46.7391 121.627 47.0282C122.172 47.3062 122.617 47.6843 122.961 48.1624C123.317 48.6406 123.573 49.1854 123.729 49.797C123.884 50.4086 123.94 51.048 123.895 51.7151H117.674Z" fill="white"/>
  <path d="M106.339 46.8281H108.59V48.029H108.641C108.941 47.5286 109.33 47.1672 109.808 46.9448C110.286 46.7113 110.775 46.5945 111.276 46.5945C111.91 46.5945 112.427 46.6835 112.827 46.8614C113.238 47.0282 113.561 47.2673 113.794 47.5786C114.028 47.8789 114.189 48.2514 114.278 48.6962C114.378 49.1298 114.428 49.6135 114.428 50.1473V55.4513H112.06V50.5809C112.06 49.8693 111.949 49.3411 111.726 48.9964C111.504 48.6406 111.109 48.4626 110.542 48.4626C109.897 48.4626 109.43 48.6572 109.141 49.0464C108.852 49.4245 108.707 50.0527 108.707 50.9312V55.4513H106.339V46.8281Z" fill="white"/>
  <path d="M104.969 45.4941H102.601V43.5426H104.969V45.4941ZM102.601 46.8285H104.969V55.4517H102.601V46.8285Z" fill="white"/>
  <path d="M98.8055 43.5426H101.174V55.4517H98.8055V43.5426Z" fill="white"/>
  <path d="M92.7549 46.8281H95.0066V48.4293H95.0399C95.1511 48.1624 95.3012 47.9178 95.4903 47.6954C95.6793 47.4619 95.8961 47.2673 96.1408 47.1116C96.3854 46.9448 96.6467 46.8169 96.9247 46.728C97.2027 46.639 97.4918 46.5945 97.792 46.5945C97.9477 46.5945 98.1201 46.6223 98.3091 46.6779V48.8796C98.1979 48.8574 98.0645 48.8407 97.9088 48.8296C97.7531 48.8073 97.603 48.7962 97.4585 48.7962C97.0248 48.7962 96.6578 48.8685 96.3576 49.0131C96.0574 49.1576 95.8127 49.3578 95.6237 49.6135C95.4458 49.8582 95.3179 50.1473 95.2401 50.4809C95.1623 50.8144 95.1233 51.1758 95.1233 51.565V55.4513H92.7549V46.8281Z" fill="white"/>
  <path d="M91.3894 45.4941H89.021V43.5426H91.3894V45.4941ZM89.021 46.8285H91.3894V55.4517H89.021V46.8285Z" fill="white"/>
  <path d="M81.2894 50.8482H84.3751L82.8739 46.4782H82.8406L81.2894 50.8482ZM81.5396 43.5426H84.225L88.6784 55.4517H85.9596L85.0589 52.7997H80.6055L79.6715 55.4517H77.0361L81.5396 43.5426Z" fill="white"/>
  <path d="M72.8482 45.8106C72.2366 46.3444 71.6918 47.0004 71.2136 47.7788C70.7466 48.5572 70.3519 49.3856 70.0294 50.264C69.7181 51.1425 69.4734 52.032 69.2955 52.9327C69.1287 53.8334 69.0398 54.673 69.0286 55.4513H66.4934C66.6268 53.7056 67.0327 52.0265 67.711 50.4141C68.4004 48.8018 69.3011 47.3229 70.413 45.9774H64.8755V43.7757H72.8482V45.8106Z" fill="white"/>
  <path d="M60.6598 46.7447H60.6098L57.5908 50.7978H60.6598V46.7447ZM60.6598 52.7493H55.7227V50.5809L60.7933 43.7757H62.9116V50.7978H64.4627V52.7493H62.9116V55.4513H60.6598V52.7493Z" fill="white"/>
  <path d="M55.3137 45.8106C54.7021 46.3444 54.1573 47.0004 53.6791 47.7788C53.2121 48.5572 52.8174 49.3856 52.4949 50.264C52.1835 51.1425 51.9389 52.032 51.761 52.9327C51.5942 53.8334 51.5052 54.673 51.4941 55.4513H48.9588C49.0923 53.7056 49.4981 52.0265 50.1764 50.4141C50.8659 48.8018 51.7666 47.3229 52.8785 45.9774H47.3409V43.7757H55.3137V45.8106Z" fill="white"/>
</svg>