<svg width="189" height="210" viewBox="0 0 189 210" fill="none" xmlns="http://www.w3.org/2000/svg">
<path d="M93.1881 16.8687C93.9691 16.0876 93.9691 14.8213 93.1881 14.0403L80.4602 1.31233C79.6791 0.531284 78.4128 0.531284 77.6317 1.31233C76.8507 2.09338 76.8507 3.35971 77.6317 4.14076L88.9454 15.4545L77.6317 26.7682C76.8507 27.5492 76.8507 28.8156 77.6317 29.5966C78.4128 30.3777 79.6791 30.3777 80.4602 29.5966L93.1881 16.8687ZM91.7739 192.672C43.3889 192.672 4.16522 153.448 4.16522 105.063H0.165222C0.165222 155.657 41.1798 196.672 91.7739 196.672V192.672ZM4.16522 105.063C4.16522 56.6782 43.3889 17.4545 91.7739 17.4545V13.4545C41.1798 13.4545 0.165222 54.4691 0.165222 105.063H4.16522Z" fill="white"/>
<path d="M95.1112 196.086C94.3302 195.305 94.3302 194.039 95.1112 193.258L107.839 180.53C108.62 179.749 109.887 179.749 110.668 180.53C111.449 181.311 111.449 182.577 110.668 183.358L99.3539 194.672L110.668 205.985C111.449 206.767 111.449 208.033 110.668 208.814C109.887 209.595 108.62 209.595 107.839 208.814L95.1112 196.086ZM96.5255 192.672C144.91 192.672 184.134 153.448 184.134 105.063H188.134C188.134 155.657 147.12 196.672 96.5255 196.672V192.672ZM184.134 105.063C184.134 56.6782 144.91 17.4545 96.5255 17.4545V13.4545C147.12 13.4545 188.134 54.4691 188.134 105.063H184.134Z" fill="white"/>
<path d="M109.613 102.413L129.532 102.413C130.067 102.46 132.402 102.706 134.609 103.541C137.302 104.561 137.909 105.64 137.909 106.522C137.909 107.405 137.303 108.484 134.609 109.503C132.402 110.339 130.067 110.584 129.532 110.631L109.613 110.631C107.881 110.631 106.276 111.54 105.385 113.025L91.632 135.946L94.58 116.293C95.0272 113.312 92.7184 110.631 89.7041 110.631L68.3342 110.631C67.2674 110.631 66.2293 110.977 65.3758 111.617L57.7633 117.326L59.9168 106.559L57.7719 94.7619L65.1223 101.193C66.0211 101.98 67.1747 102.413 68.369 102.413L89.7041 102.413C92.7185 102.413 95.0272 99.7324 94.58 96.7515L91.632 77.0978L105.385 100.02C106.276 101.505 107.881 102.413 109.613 102.413Z" fill="white"/>
</svg>
